<?xml version="1.0" encoding="utf-8"?>
<!-- Generator: Adobe Illustrator 18.1.0, SVG Export Plug-In . SVG Version: 6.00 Build 0)  -->
<!DOCTYPE svg PUBLIC "-//W3C//DTD SVG 1.1//EN" "http://www.w3.org/Graphics/SVG/1.1/DTD/svg11.dtd">
<svg version="1.1" id="Layer_1" xmlns="http://www.w3.org/2000/svg" xmlns:xlink="http://www.w3.org/1999/xlink" x="0px" y="0px"
	 viewBox="-410 267.3 139 26.7" enable-background="new -410 267.3 139 26.7" xml:space="preserve">
<g>
	<path fill="#803E97" d="M-409.9,275.9c-0.2-0.3,0-0.6,0.4-0.6h1.5c0.3,0,0.4,0.1,0.5,0.3l2.8,6.3l0,0l6.6-14.3
		c0.2-0.3,0.4-0.3,0.7-0.3h1.2c0.4,0,0.6,0.3,0.4,0.6l-8.4,18.1c0,0.1-0.2,0.3-0.4,0.3h-0.2c-0.2,0-0.4-0.1-0.5-0.3L-409.9,275.9z"
		/>
	<path fill="#803E97" d="M-394.9,275.1c2.8,0,4.9,2.1,4.9,4.9c0,0.2,0,0.5-0.1,0.7c0,0.3-0.2,0.5-0.5,0.5h-7.3
		c0.1,1.4,1.3,2.9,3.1,2.9c1,0,1.8-0.4,2.4-0.8c0.3-0.2,0.5-0.3,0.7,0l0.7,1c0.2,0.2,0.3,0.4-0.1,0.7c-0.8,0.7-2.2,1.3-4,1.3
		c-3.2,0-5.4-2.5-5.4-5.6C-400.2,277.7-398.1,275.1-394.9,275.1z M-392.4,279.5c-0.1-1.3-1.1-2.4-2.5-2.4c-1.4,0-2.6,1-2.7,2.4
		C-397.6,279.5-392.4,279.5-392.4,279.5z"/>
	<path fill="#803E97" d="M-389.4,275.8c0-0.3,0.2-0.5,0.5-0.5h0.8c0.2,0,0.4,0.2,0.5,0.4l0.3,0.9c0.2-0.3,1.2-1.5,3.1-1.5
		c1,0,2.2,0.3,1.9,1l-0.6,1.3c-0.1,0.3-0.4,0.3-0.6,0.2c-0.2-0.1-0.6-0.2-0.9-0.2c-1.5,0-2.3,1.1-2.4,1.3v6.8c0,0.5-0.3,0.5-0.7,0.5
		h-1.3c-0.3,0-0.5-0.2-0.5-0.5v-9.7H-389.4z"/>
	<path fill="#803E97" d="M-380.1,277.5h-1.1c-0.3,0-0.5-0.2-0.5-0.5v-1.2c0-0.3,0.2-0.5,0.5-0.5h1.1v-3c0-0.3,0.2-0.5,0.5-0.5h1.5
		c0.3,0,0.5,0.2,0.5,0.5v3h2.7c0.3,0,0.5,0.2,0.5,0.5v1.2c0,0.3-0.2,0.5-0.5,0.5h-2.7v5.3c0,0.9,0.3,1.1,0.9,1.1s1.1-0.3,1.5-0.5
		c0.3-0.2,0.5,0,0.6,0.2l0.5,1.2c0.1,0.3,0,0.5-0.2,0.6c-0.3,0.2-1.7,0.8-3,0.8c-2.1,0-2.7-1.3-2.7-3.2v-5.5H-380.1z"/>
	<path fill="#803E97" d="M-373.9,271.8c0-0.9,0.7-1.6,1.5-1.6c0.9,0,1.6,0.7,1.6,1.6s-0.7,1.5-1.6,1.5
		C-373.2,273.4-373.9,272.7-373.9,271.8z M-373.6,275.8c0-0.3,0.2-0.5,0.5-0.5h1.5c0.3,0,0.6,0.3,0.6,0.5v9.7c0,0.3-0.2,0.5-0.5,0.5
		h-1.5c-0.3,0-0.5-0.2-0.5-0.5v-9.7H-373.6z"/>
	<path fill="#803E97" d="M-364.8,275.1c1.6,0,2.9,0.7,3.9,1.9c0.2,0.2,0.1,0.6-0.1,0.7l-0.9,0.8c-0.3,0.3-0.5,0.1-0.7-0.1
		c-0.5-0.5-1.3-1-2.1-1c-1.7,0-3.1,1.5-3.1,3.3c0,1.8,1.3,3.3,3.1,3.3c1.4,0,1.9-0.7,2.5-1.2c0.2-0.2,0.5-0.2,0.7-0.1l0.7,0.6
		c0.3,0.2,0.4,0.5,0.2,0.7c-0.9,1.4-2.3,2.2-4.1,2.2c-3,0-5.6-2.4-5.6-5.6C-370.4,277.5-367.7,275.1-364.8,275.1z"/>
	<path fill="#803E97" d="M-355.9,279.3c1.1,0,2.1,0.3,2.1,0.3c0-1.7-0.3-2.3-1.7-2.3c-1.2,0-2.4,0.3-3,0.5c-0.3,0.1-0.5-0.1-0.6-0.4
		l-0.2-1c-0.1-0.3,0.1-0.5,0.3-0.6s1.7-0.6,3.7-0.6c3.4,0,3.7,2.1,3.7,4.8v5.7c0,0.3-0.2,0.5-0.5,0.5h-0.7c-0.2,0-0.3-0.1-0.5-0.4
		l-0.3-0.7c-0.6,0.6-1.6,1.4-3.3,1.4c-2,0-3.4-1.4-3.4-3.6C-360.2,280.8-358.7,279.3-355.9,279.3z M-356.3,284.4
		c1.1,0,2.1-0.8,2.4-1.3v-1.8c-0.2-0.1-0.9-0.4-1.9-0.4c-1.3,0-2.2,0.7-2.2,1.8C-357.9,283.6-357.3,284.4-356.3,284.4z"/>
	<path fill="#803E97" d="M-350.7,267.8c0-0.3,0.2-0.5,0.5-0.5h1.5c0.3,0,0.5,0.2,0.5,0.5v17.7c0,0.3-0.2,0.5-0.5,0.5h-1.5
		c-0.3,0-0.5-0.2-0.5-0.5V267.8z"/>
	<path fill="#010101" d="M-347.2,275.8c0-0.2,0.2-0.5,0.5-0.5h0.8c0.2,0,0.4,0.2,0.5,0.4l0.3,0.9c0.1-0.3,1.1-1.5,3-1.5
		c1,0,2.2,0.3,1.9,1l-0.6,1.3c-0.1,0.3-0.4,0.3-0.6,0.2c-0.2-0.1-0.6-0.2-0.9-0.2c-1.5,0-2.3,1.1-2.4,1.3v6.8c0,0.5-0.3,0.5-0.7,0.5
		h-1.3c-0.3,0-0.5-0.2-0.5-0.5C-347.2,285.5-347.2,275.8-347.2,275.8z"/>
	<path fill="#010101" d="M-335.8,275.1c2.8,0,4.9,2.1,4.9,4.9c0,0.2,0,0.5-0.1,0.7c0,0.3-0.2,0.5-0.5,0.5h-7.3
		c0.1,1.4,1.3,2.9,3.1,2.9c1,0,1.8-0.4,2.4-0.8c0.3-0.2,0.5-0.3,0.7,0l0.7,1c0.2,0.2,0.3,0.4-0.1,0.7c-0.8,0.7-2.2,1.3-4,1.3
		c-3.2,0-5.4-2.5-5.4-5.6C-341.1,277.7-339,275.1-335.8,275.1z M-333.3,279.5c-0.1-1.3-1.1-2.4-2.5-2.4c-1.4,0-2.6,1-2.7,2.4
		C-338.5,279.5-333.3,279.5-333.3,279.5z"/>
	<path fill="#010101" d="M-330.4,284.6l0.6-1c0.1-0.2,0.4-0.3,0.7-0.1c0,0,1.2,0.7,2.5,0.7c0.8,0,1.3-0.3,1.3-0.9
		c0-0.7-0.6-1.1-2.1-1.7c-1.7-0.7-3-1.7-3-3.5c0-1.3,1.1-2.9,3.7-2.9c1.5,0,2.6,0.5,3.2,0.8c0.2,0.2,0.4,0.5,0.2,0.8l-0.5,0.9
		c-0.1,0.2-0.5,0.3-0.7,0.2c0,0-1.2-0.6-2.2-0.6c-0.9,0-1.2,0.4-1.2,0.8c0,0.7,0.7,1,1.7,1.4c1.9,0.9,3.6,1.7,3.6,3.7
		c0,1.7-1.6,3.1-4,3.1c-1.8,0-3-0.6-3.5-1.1C-330.4,285.1-330.5,284.8-330.4,284.6z"/>
	<path fill="#010101" d="M-319.6,293.5c0,0.3-0.2,0.5-0.6,0.5h-1.5c-0.3,0-0.5-0.2-0.5-0.5v-17.7c0-0.2,0.2-0.5,0.5-0.5h0.8
		c0.2,0,0.3,0.1,0.5,0.3l0.3,0.7c0.2-0.2,1.3-1.3,3.3-1.3c2.9,0,5.1,2.6,5.1,5.6c0,3.1-2.3,5.6-5.2,5.6c-1.4,0-2.4-0.6-2.6-0.7v8
		H-319.6z M-317.3,284c1.8,0,3-1.5,3-3.3c0-1.8-1.1-3.3-2.9-3.3c-1.5,0-2.3,1.2-2.5,1.5v4.3C-319.7,283.2-318.8,284-317.3,284z"/>
	<path fill="#010101" d="M-306,275.1c3,0,5.4,2.6,5.4,5.6c0,3.1-2.4,5.6-5.4,5.6s-5.4-2.6-5.4-5.6C-311.4,277.6-309,275.1-306,275.1
		z M-306,284c1.7,0,3-1.5,3-3.3c0-1.8-1.3-3.3-3-3.3s-3,1.5-3,3.3C-309,282.5-307.7,284-306,284z"/>
	<path fill="#010101" d="M-300.1,275.8c0-0.3,0.2-0.5,0.5-0.5h0.8c0.2,0,0.4,0.1,0.4,0.3l0.3,0.9c0.2-0.2,1.6-1.5,3.7-1.5
		c3.3,0,4.5,2.3,4.5,5.1v5.4c0,0.3-0.2,0.5-0.5,0.5h-1.5c-0.3,0-0.5-0.2-0.5-0.5V280c0-1.7-0.8-2.6-2.2-2.6c-1.7,0-2.8,1.2-3,1.6
		v6.5c0,0.3-0.2,0.5-0.6,0.5h-1.4c-0.3,0-0.5-0.2-0.5-0.5C-300.1,285.5-300.1,275.8-300.1,275.8z"/>
	<path fill="#010101" d="M-289.2,284.6l0.6-1c0.1-0.2,0.4-0.3,0.7-0.1c0,0,1.2,0.7,2.5,0.7c0.8,0,1.3-0.3,1.3-0.9
		c0-0.7-0.6-1.1-2.1-1.7c-1.7-0.7-3-1.7-3-3.5c0-1.3,1.1-2.9,3.7-2.9c1.5,0,2.6,0.5,3.1,0.8c0.2,0.2,0.4,0.5,0.2,0.8l-0.5,0.9
		c-0.1,0.2-0.5,0.3-0.7,0.2c0,0-1.2-0.6-2.2-0.6c-0.9,0-1.2,0.4-1.2,0.8c0,0.7,0.7,1,1.7,1.4c1.9,0.9,3.5,1.7,3.5,3.7
		c0,1.7-1.6,3.1-4,3.1c-1.8,0-3-0.6-3.5-1.1C-289.2,285.1-289.3,284.8-289.2,284.6z"/>
	<path fill="#010101" d="M-275.9,275.1c2.8,0,4.9,2.1,4.9,4.9c0,0.2,0,0.5-0.1,0.7c0,0.3-0.2,0.5-0.5,0.5h-7.3
		c0.1,1.4,1.3,2.9,3.1,2.9c1,0,1.8-0.4,2.4-0.8c0.3-0.2,0.5-0.3,0.7,0l0.7,1c0.2,0.2,0.3,0.4-0.1,0.7c-0.8,0.7-2.2,1.3-4,1.3
		c-3.2,0-5.4-2.5-5.4-5.6C-281.3,277.7-279.1,275.1-275.9,275.1z M-273.5,279.5c-0.1-1.3-1.1-2.4-2.5-2.4c-1.4,0-2.6,1-2.7,2.4
		C-278.7,279.5-273.5,279.5-273.5,279.5z"/>
</g>
</svg>
